<?xml version="1.0" encoding="utf-8"?>
<!-- Generator: Adobe Illustrator 20.1.0, SVG Export Plug-In . SVG Version: 6.00 Build 0)  -->
<svg version="1.1" id="Helmes_Logotype" xmlns="http://www.w3.org/2000/svg" xmlns:xlink="http://www.w3.org/1999/xlink" x="0px"
	 y="0px" viewBox="0 0 408.2 92.1" style="enable-background:new 0 0 408.2 92.1;" xml:space="preserve">
<style type="text/css">
	.st0{fill:#ffffff;}
</style>
<g id="Logotype_3_">
	<path id="S_1_" class="st0" d="M381,53.3l-0.6-0.1c-9.1-2.1-12.6-2.8-12.6-6.9c0-2,1.2-6.8,12-6.8c7.1,0,11.5,2.1,13.3,7.2h14
		c-2.1-9-8.5-18.2-26.7-18.2c-8,0-14.7,1.8-19.3,5.3c-4.6,3.4-7,8.5-7,14.5c0,9.5,5.4,13.5,24.3,18c1.5,0.4,2.8,0.7,4.1,0.9
		c7.2,1.6,11.5,2.6,11.5,7.4c0,4.4-4.1,6.7-12.1,6.7c-9.2,0-14.4-2.7-16.4-9.2h-13.9c2.8,12.8,14.1,20.2,29.9,20.2
		c13,0,26.8-5.2,26.8-19.8C408.2,60.8,399.5,57.5,381,53.3z"/>
	<path id="E_3_" class="st0" d="M311.8,28.3c-17.6,0-31.9,14.3-31.9,31.9c0,17.6,14.3,31.9,31.9,31.9c13.5,0,25-8.4,29.7-20.2H326
		c-3.2,4.7-8.4,7.8-14.2,7.8c-8.6,0-15.7-6.7-17.4-15.6h49c0.2-1.3,0.2-2.6,0.2-3.9C343.7,42.6,329.4,28.3,311.8,28.3z M295.2,53.5
		c2.5-7.4,9-12.8,16.6-12.8c7.6,0,14.1,5.3,16.6,12.8H295.2z"/>
	<path id="M_1_" class="st0" d="M243.8,28.3c-7.2,0-13.8,3-18.4,7.9c-4.6-4.9-11.2-7.9-18.4-7.9c-14.1,0-25.5,11.4-25.5,25.5v38.3
		h14.2V53.9c0-6.3,5.1-11.3,11.3-11.3s11.3,5.1,11.3,11.3v38.3h14.2V53.9h0c0-6.3,5.1-11.3,11.3-11.3s11.3,5.1,11.3,11.3h0v38.3
		h14.2V53.9C269.3,39.8,257.9,28.3,243.8,28.3z"/>
	<polygon id="L_1_" class="st0" points="152.4,92.1 166.5,92.1 166.5,0 152.4,3 	"/>
	<path id="E_2_" class="st0" d="M108.4,28.3c-17.6,0-31.9,14.3-31.9,31.9c0,17.6,14.3,31.9,31.9,31.9c13.5,0,25-8.4,29.7-20.2h-15.5
		c-3.2,4.7-8.4,7.8-14.2,7.8c-8.6,0-15.7-6.7-17.4-15.6h49c0.2-1.3,0.2-2.6,0.2-3.9C140.3,42.6,126,28.3,108.4,28.3z M91.8,53.5
		c2.5-7.4,9-12.8,16.6-12.8c7.6,0,14.1,5.3,16.6,12.8H91.8z"/>
	<polygon id="H_1_" class="st0" points="49.6,14.2 49.6,46.1 14.2,46.1 14.2,14.2 0,14.2 0,92.1 14.2,92.1 14.2,60.2 49.6,60.2
		49.6,92.1 63.8,92.1 63.8,14.2 	"/>
</g>
</svg>
